<svg width="100" height="100" viewBox="0 0 100 100" fill="none" xmlns="http://www.w3.org/2000/svg">
<path d="M100 50C100 98.5 98.5 100 50 100C1.5 100 1.66879e-07 98.5 0 50C-1.66879e-07 1.5 1.5 0 50 0C98.5 0 100 1.5 100 50Z" fill="#E6C7C1"/>
<path fill-rule="evenodd" clip-rule="evenodd" d="M22 28V72H32.8439L33.093 57.6154H53.2248L62.6744 72H75L64.7287 57.6154C72.387 55.7218 73.3566 50.8461 73.3566 41.5385C73.3566 32.2308 69.2691 28.2011 59.7984 28H22ZM33.093 47.8846V37.7308H60.2093C61.7211 37.9043 62.2367 38.396 62.6744 39.8461V45.7692C62.2548 47.3112 61.6462 47.7268 60.0751 47.8846H33.093Z" fill="white"/>
<ellipse cx="81" cy="22.5" rx="6" ry="5.5" fill="#F41240" fill-opacity="0.53"/>
</svg>
