<svg width="100" height="100" viewBox="0 0 100 100" fill="none" xmlns="http://www.w3.org/2000/svg">
<path d="M100 50C100 98.5 98.5 100 50 100C1.5 100 1.66879e-07 98.5 0 50C-1.66879e-07 1.5 1.5 0 50 0C98.5 0 100 1.5 100 50Z" fill="#E6C7C1"/>
<path d="M54.4999 72.5C35.4999 73.5 17.4998 62 17 31H28.4998C28.4998 31 27.9998 55.5 43.4998 59.5V31H54.4998V47.3164C62.464 46.5751 69.4607 36.6633 69.9998 31H80.9998C78.3923 41.4071 75.1502 45.8386 66.4998 51.5C77.0681 57.6772 79.6718 62.8026 83.4998 72.5H71.4998C68.5471 64.0992 65.1955 60.5483 54.4998 57.5L54.4999 72.5Z" fill="white"/>
</svg>
