<svg width="100" height="100" viewBox="0 0 100 100" fill="none" xmlns="http://www.w3.org/2000/svg">
<path d="M100 50C100 98.5 98.5 100 50 100C1.5 100 1.66879e-07 98.5 0 50C-1.66879e-07 1.5 1.5 0 50 0C98.5 0 100 1.5 100 50Z" fill="#E6C7C1"/>
<path fill-rule="evenodd" clip-rule="evenodd" d="M77.4837 43.3639C77.9995 45.4955 78.2728 47.7218 78.2728 50.0119C78.2728 65.5666 65.6633 78.1761 50.1087 78.1761C34.554 78.1761 21.9445 65.5666 21.9445 50.0119C21.9445 35.4048 33.0646 23.3949 47.3011 21.986V10C26.4596 11.4411 10 28.8044 10 50.0119C10 72.1633 27.9573 90.1206 50.1087 90.1206C72.2601 90.1206 90.2174 72.1633 90.2174 50.0119C90.2174 45.0169 89.3043 40.2351 87.6359 35.8244L77.4837 43.3639Z" fill="#FCCA00"/>
<path d="M57.7012 38.0414C61.8507 40.4967 64.6272 45.5293 64.6272 50.6438V25.6036C68.103 27.5131 70.3309 29.2146 73.9975 34.4304L80.1086 22.7951C73.5901 14.7707 64.2198 11.5609 57.7012 10.1206V38.0414Z" fill="#FC3F1D"/>
<path d="M50.3679 64.1206C58.2431 64.1206 64.6272 58.3994 64.6272 50.6438C64.6272 45.5293 61.8507 40.4967 57.7012 38.0414C55.5585 36.7736 53.0497 36.0352 50.3679 36.0352C42.4927 36.0352 36.1086 42.3224 36.1086 50.0779C36.1086 57.8335 42.4927 64.1206 50.3679 64.1206Z" fill="#FC3F1D"/>
</svg>
